<svg width="182" height="30" viewBox="0 0 182 30" fill="none" xmlns="http://www.w3.org/2000/svg">
<path d="M28 8.70905L26.7593 12.9708L25.9672 12.1805L21.7839 16.1319L18.7806 18.9683L16.3251 21.2874L14.0129 18.9683L12.9229 17.8747L11.5739 16.5208L11.1695 16.1158L8.95471 13.8931L8.10371 14.7154L7.81883 14.9902L6.46975 16.296L5.11698 17.6036L3.72379 18.9505L3.70539 18.9683L1.71118 20.8949L0 22.5504L2.72392 18.9683L6.46975 14.0393L7.81883 12.2661L8.98595 10.7302L11.5739 13.3276L12.6803 14.4389L12.9229 14.6816L16.3747 18.1423L16.6798 17.8534L18.0289 16.5796L18.6281 16.0142L20.3723 14.3658L21.7839 13.0333L24.3718 10.5893L23.5778 9.79899L28 8.70905Z" fill="#2DFF34"/>
<path d="M6.46975 8.70905V14.0393L2.72392 18.9683H2.71289V8.70905H6.46975Z" fill="#FFCE5F"/>
<path d="M27.1545 16.0142C27.1545 23.726 20.6921 30 12.7446 30C8.69002 30 4.91844 28.3463 2.25154 25.5991C1.72587 25.0586 1.24431 24.477 0.810547 23.8562L2.46658 22.2561L5.12983 19.6855L5.87054 18.9683L6.46973 18.3904L7.81881 17.0845L8.11656 16.7973L8.82052 16.1159L8.93446 16.0035L8.9363 16.0053L8.99878 15.9446L11.5738 18.5277L12.6931 19.6516L16.3857 23.3568L18.639 21.2268L20.3851 19.5802L21.0321 18.9684L21.7838 18.2584L24.3827 15.8019L16.3378 26.5018L11.1804 21.3303L8.96566 19.1075L8.11652 19.9281L5.12979 22.8162L3.87444 24.0311C6.11864 26.3698 9.31122 27.7791 12.7446 27.7791C19.4294 27.7791 24.8662 22.5023 24.8662 16.0142H27.1545V16.0142Z" fill="#00B7FF"/>
<path d="M11.5734 5.60332V13.3276L8.98548 10.7302L7.81836 12.2662V5.60332H11.5734Z" fill="#FFCE5F"/>
<path d="M16.6797 3.08618V17.8534L16.3746 18.1424L12.9229 14.6816V3.08618H16.6797Z" fill="#FFCE5F"/>
<path d="M21.7843 0V13.0333L20.3727 14.3658L18.6285 16.0142L18.0293 16.5797V0H21.7843Z" fill="#FFCE5F"/>
<path d="M42.9922 23.336C41.4562 23.336 40.0002 23.208 38.6242 22.952C37.2642 22.68 36.2162 22.376 35.4802 22.04V17.288H40.7602C40.7602 17.784 40.8722 18.144 41.0962 18.368C41.3202 18.592 41.7282 18.704 42.3202 18.704C42.8162 18.704 43.1682 18.632 43.3762 18.488C43.6002 18.328 43.7122 18.096 43.7122 17.792C43.7122 17.536 43.6082 17.32 43.4002 17.144C43.1922 16.952 42.8322 16.76 42.3202 16.568L40.2562 15.848C38.4802 15.176 37.2002 14.384 36.4162 13.472C35.6482 12.56 35.2642 11.328 35.2642 9.776C35.2642 7.888 35.8802 6.456 37.1122 5.48C38.3602 4.488 40.4322 3.992 43.3282 3.992C44.7202 3.992 46.0242 4.136 47.2402 4.424C48.4722 4.696 49.4642 5.064 50.2162 5.528V9.824H45.4162C45.4162 9.024 44.9202 8.624 43.9282 8.624C43.4482 8.624 43.1042 8.688 42.8962 8.816C42.7042 8.928 42.6082 9.136 42.6082 9.44C42.6082 9.712 42.7202 9.928 42.9442 10.088C43.1842 10.248 43.5682 10.416 44.0962 10.592L46.1842 11.312C47.8802 11.888 49.1122 12.64 49.8802 13.568C50.6642 14.48 51.0562 15.68 51.0562 17.168C51.0562 19.2 50.3682 20.736 48.9922 21.776C47.6322 22.816 45.6322 23.336 42.9922 23.336ZM57.3641 23.336C55.6681 23.336 54.3881 22.928 53.5241 22.112C52.6761 21.28 52.2521 19.888 52.2521 17.936V13.592H51.1961V9.656C51.8041 9.656 52.2601 9.504 52.5641 9.2C52.8681 8.88 53.0201 8.448 53.0201 7.904V6.824H58.1081V9.656H61.3481V13.592H58.1081V17.528C58.1081 18.056 58.2201 18.448 58.4441 18.704C58.6841 18.944 59.0361 19.064 59.5001 19.064C60.1081 19.064 60.7721 18.992 61.4921 18.848V22.616C61.0441 22.792 60.4361 22.952 59.6681 23.096C58.9161 23.256 58.1481 23.336 57.3641 23.336ZM69.1762 23.336C66.9042 23.336 65.1282 22.744 63.8482 21.56C62.5682 20.36 61.9282 18.616 61.9282 16.328C61.9282 14.04 62.5682 12.304 63.8482 11.12C65.1282 9.92 66.9042 9.32 69.1762 9.32C71.4802 9.32 73.2642 9.928 74.5282 11.144C75.7922 12.344 76.4242 14.072 76.4242 16.328C76.4242 18.616 75.7842 20.36 74.5042 21.56C73.2242 22.744 71.4482 23.336 69.1762 23.336ZM69.1762 19.064C69.6402 19.064 69.9842 18.944 70.2082 18.704C70.4482 18.448 70.5682 18.056 70.5682 17.528V15.128C70.5682 14.6 70.4482 14.216 70.2082 13.976C69.9842 13.72 69.6402 13.592 69.1762 13.592C68.7122 13.592 68.3602 13.72 68.1202 13.976C67.8962 14.216 67.7842 14.6 67.7842 15.128V17.528C67.7842 18.056 67.8962 18.448 68.1202 18.704C68.3602 18.944 68.7122 19.064 69.1762 19.064ZM84.1243 23.336C81.8363 23.336 80.0523 22.744 78.7723 21.56C77.4923 20.36 76.8523 18.616 76.8523 16.328C76.8523 14.04 77.4923 12.304 78.7723 11.12C80.0523 9.92 81.8283 9.32 84.1003 9.32C85.2043 9.32 86.2603 9.472 87.2683 9.776C88.2763 10.08 89.0603 10.424 89.6203 10.808V15.56H85.4923V15.128C85.4923 14.6 85.3803 14.216 85.1563 13.976C84.9323 13.72 84.5803 13.592 84.1003 13.592C83.1723 13.592 82.7083 14.104 82.7083 15.128V17.192C82.7083 18.44 83.4203 19.064 84.8443 19.064C86.1723 19.064 87.7163 18.92 89.4763 18.632V22.4C88.9323 22.64 88.1643 22.856 87.1723 23.048C86.1963 23.24 85.1803 23.336 84.1243 23.336ZM104.657 19.064H105.689V23H99.8088L97.3368 18.392H96.7608V23H90.1848V19.064H91.2408V8.264H90.1848V4.328H96.7608V14.072H97.3368L100.313 9.656H105.377V13.592H104.393L102.353 15.872L104.657 19.064ZM125.458 8.264H124.258V19.064H125.458V23H116.386V19.064H117.538V15.104H114.178V19.064H115.33V23H106.258V19.064H107.458V8.264H106.258V4.328H115.33V8.264H114.178V11.912H117.538V8.264H116.386V4.328H125.458V8.264ZM140.119 19.064V23H133.783V21.368C133.431 21.88 132.935 22.336 132.295 22.736C131.671 23.136 130.903 23.336 129.991 23.336C128.791 23.336 127.847 23.016 127.159 22.376C126.471 21.736 126.127 20.832 126.127 19.664C126.127 16.64 128.695 15.088 133.831 15.008C133.783 14.464 133.575 14.096 133.207 13.904C132.839 13.696 132.215 13.592 131.335 13.592C130.615 13.592 129.839 13.672 129.007 13.832C128.191 13.976 127.439 14.176 126.751 14.432V10.016C127.599 9.808 128.519 9.64 129.511 9.512C130.503 9.384 131.471 9.32 132.415 9.32C134.799 9.32 136.503 9.752 137.527 10.616C138.551 11.48 139.063 12.816 139.063 14.624V19.064H140.119ZM133.783 17.384C133.063 17.384 132.503 17.48 132.103 17.672C131.719 17.864 131.527 18.184 131.527 18.632C131.527 18.904 131.607 19.128 131.767 19.304C131.943 19.464 132.183 19.544 132.487 19.544C132.903 19.544 133.223 19.368 133.447 19.016C133.671 18.664 133.783 18.168 133.783 17.528V17.384ZM147.828 23.336C145.54 23.336 143.756 22.744 142.476 21.56C141.196 20.36 140.556 18.616 140.556 16.328C140.556 14.04 141.196 12.304 142.476 11.12C143.756 9.92 145.532 9.32 147.804 9.32C148.908 9.32 149.964 9.472 150.972 9.776C151.98 10.08 152.764 10.424 153.324 10.808V15.56H149.196V15.128C149.196 14.6 149.084 14.216 148.86 13.976C148.636 13.72 148.284 13.592 147.804 13.592C146.876 13.592 146.412 14.104 146.412 15.128V17.192C146.412 18.44 147.124 19.064 148.548 19.064C149.876 19.064 151.42 18.92 153.18 18.632V22.4C152.636 22.64 151.868 22.856 150.876 23.048C149.9 23.24 148.884 23.336 147.828 23.336ZM168.361 19.064H169.393V23H163.513L161.041 18.392H160.465V23H153.889V19.064H154.945V8.264H153.889V4.328H160.465V14.072H161.041L164.017 9.656H169.081V13.592H168.097L166.057 15.872L168.361 19.064ZM175.746 23.336C173.73 23.336 171.786 23.016 169.914 22.376V18.824H173.802V19.064C173.802 19.832 174.29 20.216 175.266 20.216C176.13 20.216 176.562 19.92 176.562 19.328C176.562 19.008 176.434 18.768 176.178 18.608C175.938 18.448 175.506 18.312 174.882 18.2L173.682 17.984C171.17 17.536 169.914 16.112 169.914 13.712C169.914 12.32 170.442 11.24 171.498 10.472C172.554 9.704 173.978 9.32 175.77 9.32C177.77 9.32 179.458 9.656 180.834 10.328V13.664H177.186V13.424C177.186 13.104 177.074 12.864 176.85 12.704C176.642 12.528 176.33 12.44 175.914 12.44C175.114 12.44 174.714 12.696 174.714 13.208C174.714 13.48 174.826 13.688 175.05 13.832C175.274 13.976 175.682 14.112 176.274 14.24L177.642 14.504C179.066 14.776 180.082 15.28 180.69 16.016C181.298 16.752 181.602 17.696 181.602 18.848C181.602 20.304 181.09 21.416 180.066 22.184C179.058 22.952 177.618 23.336 175.746 23.336Z" fill="white"/>
</svg>
